<svg xmlns="http://www.w3.org/2000/svg" viewBox="0 0 128 128" role="img" aria-label="Ateni icon">
  <defs>
    <linearGradient id="bg" x1="0" y1="0" x2="1" y2="1">
      <stop offset="0" stop-color="#17381f"/>
      <stop offset="1" stop-color="#1f4b2a"/>
    </linearGradient>
  </defs>
  <rect width="128" height="128" rx="26" fill="url(#bg)"/>
  <path d="M14 93c9-10 18-18 28-24 9-6 18-9 26-12 8 3 17 6 26 12 10 6 19 14 28 24" fill="none" stroke="#e4c97a" stroke-opacity=".35" stroke-width="4" stroke-linecap="round"/>
  <path d="M64 20 34 92h12l7-18h22l7 18h12L64 20zm-6 44 6-15 6 15H58z" fill="#e4c97a"/>
  <path d="M94 43c-7 2-13 8-16 16M38 43c7 2 13 8 16 16" fill="none" stroke="#e4c97a" stroke-width="3" stroke-linecap="round"/>
  <circle cx="96" cy="41" r="3.5" fill="#e4c97a"/>
  <circle cx="92" cy="47" r="3" fill="#e4c97a" fill-opacity=".9"/>
  <circle cx="100" cy="47" r="3" fill="#e4c97a" fill-opacity=".85"/>
  <circle cx="95.5" cy="53" r="2.8" fill="#e4c97a" fill-opacity=".8"/>
  <circle cx="32" cy="41" r="3.5" fill="#e4c97a"/>
  <circle cx="36" cy="47" r="3" fill="#e4c97a" fill-opacity=".9"/>
  <circle cx="28" cy="47" r="3" fill="#e4c97a" fill-opacity=".85"/>
  <circle cx="32.5" cy="53" r="2.8" fill="#e4c97a" fill-opacity=".8"/>
</svg>
